<svg width="160" height="62" xmlns="http://www.w3.org/2000/svg" version="1.0" preserveAspectRatio="xMidYMid meet" color-interpolation-filters="sRGB" class="el-tooltip" style="margin: auto;">
 <mask id="7519e070565bc6bf58e88be4ee474c7b">
  <rect stroke="white" stroke-width="2" rx="12" ry="12" x="1" y="1" width="60" height="60" class="image-rect" fill="white" id="svg_5"/>
  <svg x="10.463559" y="13.471321" width="41.072882" height="35.057358" filtersec="colorsb6126298052" class="image-svg-svg" fill="black" id="svg_1">
   <svg viewBox="0 0 72.17 61.6" id="svg_9" xmlns="http://www.w3.org/2000/svg">
    <g id="svg_10">
     <g fill-rule="evenodd" id="svg_11">
      <path d="m5.07,19.79l0,-19.79l11.75,0l0,9.17a21.85,21.85 0 0 0 -11.75,10.62zm12,7.93l23.64,-27.72l15.43,0l-31.94,37.44a32.36,32.36 0 0 1 -3.52,-3.88a30.25,30.25 0 0 1 -2.48,-3.77l-1.13,-2.07z" id="svg_32"/>
      <path d="m16.57,12c-16.52,9.73 -21.33,37.74 -11.51,49.6l13.08,0c-13.43,-12.08 -13.08,-35.08 -1.57,-49.6zm53.94,18.13c12.36,39.62 -47.86,42.15 -55.51,1.76c16.53,30 58.42,20 55.49,-1.76l0.02,0zm-56.93,-10.36c-3.14,19.97 4.82,35.23 18.9,41.83c-13.56,-1.51 -21.35,-13.38 -22,-26.25a31.57,31.57 0 0 1 3.08,-15.58l0.02,0z" id="svg_31"/>
     </g>
    </g>
   </svg>
  </svg>
 </mask>

 <g>
  <title>background</title>
  <rect x="-1" y="-1" width="162" height="64" id="canvas_background" fill="none"/>
 </g>
 <g>
  <title>Layer 1</title>
  <g fill="#FFFFFF" class="icon-text-wrapper icon-svg-group iconsvg" id="svg_12">
   <g class="iconsvg-imagesvg" mask="url(#7519e070565bc6bf58e88be4ee474c7b)" id="svg_13">
    <rect fill="#FFFFFF" stroke="#FFFFFF" stroke-width="2" rx="12" ry="12" x="1" y="1" width="60" height="60" class="image-rect" id="svg_14"/>
    <svg x="10.463559" y="13.471321" width="41.072882" height="35.057358" filtersec="colorsb6126298052" class="image-svg-svg" id="svg_34">
     <svg viewBox="0 0 72.17 61.6" id="svg_41" xmlns="http://www.w3.org/2000/svg">
      <g id="svg_42">
       <g fill="#fff" fill-rule="evenodd" id="svg_43">
        <path d="m5.07,19.79l0,-19.79l11.75,0l0,9.17a21.85,21.85 0 0 0 -11.75,10.62zm12,7.93l23.64,-27.72l15.43,0l-31.94,37.44a32.36,32.36 0 0 1 -3.52,-3.88a30.25,30.25 0 0 1 -2.48,-3.77l-1.13,-2.07z" id="svg_45"/>
        <path d="m16.57,12c-16.52,9.73 -21.33,37.74 -11.51,49.6l13.08,0c-13.43,-12.08 -13.08,-35.08 -1.57,-49.6zm53.94,18.13c12.36,39.62 -47.86,42.15 -55.51,1.76c16.53,30 58.42,20 55.49,-1.76l0.02,0zm-56.93,-10.36c-3.14,19.97 4.82,35.23 18.9,41.83c-13.56,-1.51 -21.35,-13.38 -22,-26.25a31.57,31.57 0 0 1 3.08,-15.58l0.02,0z" id="svg_44"/>
       </g>
      </g>
     </svg>
    </svg>
    <!---->
   </g>
   <g id="svg_21">
    <g class="tp-name iconsvg-namesvg" id="svg_22">
     <g id="svg_23">
      <path d="m86.36,37.01843l-12.24,-22l0,22l-6.12,0l0,-30.02l8.19,0l11.93,22.37l0,-22.37l6.07,0l0,30.02l-7.83,0zm13.95,-30.02l6.39,0l0,30.02l-6.39,0l0,-30.02zm17.51,30.02l-10.9,-15.16l11.48,-14.86l8.42,0l-12.56,14.86l11.97,15.16l-8.41,0zm28.8,-10.48l-10.26,0l0,10.48l-6.39,0l0,-30.02l14.98,0q4.1,0 5.85,0.59l0,0q2.97,0.99 4.68,4.1l0,0q1.26,2.34 1.26,5.08l0,0q0,2.3 -0.83,4.34q-0.83,2.05 -2.32,3.36l0,0q-1.35,1.17 -2.86,1.62q-1.51,0.45 -4.11,0.45l0,0zm-10.26,-14.18l0,8.82l8.68,0q2.34,0 3.29,-0.72l0,0q1.39,-1.12 1.39,-3.91l0,0q0,-3.02 -2.11,-3.87l0,0q-0.77,-0.32 -2.44,-0.32l0,0l-8.81,0z" id="svg_24"/>
     </g>
     <!---->
     <!---->
     <!---->
     <!---->
     <!---->
     <!---->
     <g fill="#c39" id="svg_25"/>
    </g>
    <g class="tp-slogan iconsvg-slogansvg" fill="#FFFFFF" id="svg_26">
     <!---->
     <rect x="68" height="1" y="49.008436" width="14.370003" id="svg_27"/>
     <rect height="1" y="49.008436" width="14.370003" x="142.370003" id="svg_28"/>
     <g id="svg_29">
      <path d="m90.43313,46.32156l-2.39,2.34l2.53,3.94l-1.36,0l-1.97,-3.19l-0.84,0.85l0,2.34l-1.03,0l0,-8.58l1.03,0l0,4.97l2.72,-2.67l1.31,0zm5.2,4.31l0,0l1.03,0q-0.18,1.08 -1.12,1.74l0,0q-0.52,0.32 -1.69,0.32l0,0q-2.67,-0.09 -2.81,-3.04l0,0q0.09,-3.43 3,-3.52l0,0q2.67,0.05 2.72,3.7l0,0l-4.6,0q0,2.07 1.83,2.07l0,0q1.31,-0.1 1.64,-1.27zm-3.47,-1.64l0,0l3.52,0q-0.14,-1.87 -1.78,-1.87l0,0q-1.55,0.14 -1.74,1.87zm10.13,1.64l0,0l1.03,0q-0.19,1.08 -1.12,1.74l0,0q-0.52,0.32 -1.69,0.32l0,0q-2.67,-0.09 -2.81,-3.04l0,0q0.09,-3.43 3,-3.52l0,0q2.67,0.05 2.71,3.7l0,0l-4.59,0q0,2.07 1.83,2.07l0,0q1.31,-0.1 1.64,-1.27zm-3.47,-1.64l0,0l3.52,0q-0.14,-1.87 -1.79,-1.87l0,0q-1.54,0.14 -1.73,1.87zm10.92,-0.66l0,0l0,4.27l-1.03,0l0,-3.84q0.09,-1.74 -1.36,-1.64l0,0q-1.59,0.09 -1.64,2.06l0,0l0,3.42l-1.08,0l0,-6.28l1.03,0l0,0.89q0.75,-1.08 1.93,-1.08l0,0q2.11,0.05 2.15,2.2zm9.99,-2.01l-2.39,2.34l2.53,3.94l-1.36,0l-1.97,-3.19l-0.84,0.85l0,2.34l-1.04,0l0,-8.58l1.04,0l0,4.97l2.71,-2.67l1.32,0zm5.2,4.31l0,0l1.03,0q-0.19,1.08 -1.12,1.74l0,0q-0.52,0.32 -1.69,0.32l0,0q-2.67,-0.09 -2.81,-3.04l0,0q0.09,-3.43 3,-3.52l0,0q2.67,0.05 2.71,3.7l0,0l-4.59,0q0,2.07 1.83,2.07l0,0q1.31,-0.1 1.64,-1.27zm-3.47,-1.64l0,0l3.52,0q-0.14,-1.87 -1.78,-1.87l0,0q-1.55,0.14 -1.74,1.87zm10.13,1.64l0,0l1.03,0q-0.19,1.08 -1.13,1.74l0,0q-0.51,0.32 -1.69,0.32l0,0q-2.67,-0.09 -2.81,-3.04l0,0q0.1,-3.43 3,-3.52l0,0q2.67,0.05 2.72,3.7l0,0l-4.59,0q0,2.07 1.83,2.07l0,0q1.31,-0.1 1.64,-1.27zm-3.47,-1.64l0,0l3.51,0q-0.14,-1.87 -1.78,-1.87l0,0q-1.55,0.14 -1.73,1.87zm6.75,0.8l0,0q0.04,1.97 1.73,2.11l0,0q1.64,-0.05 1.69,-2.44l0,0q0.05,-2.34 -1.74,-2.34l0,0q-1.68,0 -1.68,2.67zm0.04,5.2l-1.03,0l0,-8.67l0.99,0l0,0.89l0.04,0q0,0 0.05,-0.05l0,0q0.66,-1.03 1.78,-1.03l0,0q2.49,0.14 2.63,3.14l0,0q-0.14,3.33 -2.77,3.42l0,0q-1.08,0 -1.64,-0.75l0,0l-0.05,0l0,3.05z" id="svg_30"/>
     </g>
    </g>
   </g>
  </g>
 </g>
</svg>